<mxfile host="app.diagrams.net" agent="Mozilla/5.0 (Macintosh; Intel Mac OS X 10_15_7) AppleWebKit/605.1.15 (KHTML, like Gecko) Version/18.3 Safari/605.1.15" version="26.0.13">
  <diagram name="第 1 页" id="7hnfKK3iBVu5q5P-Jfl6">
    <mxGraphModel dx="1774" dy="1221" grid="1" gridSize="10" guides="1" tooltips="1" connect="1" arrows="1" fold="1" page="1" pageScale="1" pageWidth="827" pageHeight="1169" math="0" shadow="0">
      <root>
        <mxCell id="0" />
        <mxCell id="1" parent="0" />
        <mxCell id="PMx_NyxeMetvyUwV41ef-1" value="▣ AI增强工具链" style="whiteSpace=wrap;strokeWidth=2;" vertex="1" parent="1">
          <mxGeometry x="986" y="20" width="547" height="152" as="geometry" />
        </mxCell>
        <mxCell id="PMx_NyxeMetvyUwV41ef-2" value="☆ 增强模块 - 可延后实施" style="whiteSpace=wrap;strokeWidth=2;" vertex="1" parent="1">
          <mxGeometry x="20" y="245" width="1260" height="128" as="geometry" />
        </mxCell>
        <mxCell id="PMx_NyxeMetvyUwV41ef-3" value="★ 核心流程 - MVP必须模块" style="whiteSpace=wrap;strokeWidth=2;" vertex="1" parent="1">
          <mxGeometry x="1553" y="20" width="910" height="980" as="geometry" />
        </mxCell>
        <UserObject label="1. 目标定义&#xa;▲ 5分钟&#xa;✔ 核心KPI文档&#xa;※ SMART原则+反向推演" link="https://example.com/smart-template" tooltip="下载SMART模板" id="PMx_NyxeMetvyUwV41ef-4">
          <mxCell style="whiteSpace=wrap;strokeWidth=2;" vertex="1" parent="1">
            <mxGeometry x="1971" y="57" width="260" height="78" as="geometry" />
          </mxCell>
        </UserObject>
        <mxCell id="PMx_NyxeMetvyUwV41ef-5" value="2. 市场定位&#xa;▲ 7分钟&#xa;✔ 机会地图&#xa;※ PESTEL+AI词云" style="whiteSpace=wrap;strokeWidth=2;" vertex="1" parent="1">
          <mxGeometry x="1588" y="270" width="260" height="78" as="geometry" />
        </mxCell>
        <UserObject label="3. 价值架构&#xa;▲ 10分钟&#xa;✔ 精益画布&#xa;※ 价值公式V=(B×U)/(C+SR)" link="https://example.com/lean-canvas" tooltip="打开精益画布" id="PMx_NyxeMetvyUwV41ef-6">
          <mxCell style="whiteSpace=wrap;strokeWidth=2;" vertex="1" parent="1">
            <mxGeometry x="1636" y="445" width="260" height="78" as="geometry" />
          </mxCell>
        </UserObject>
        <mxCell id="PMx_NyxeMetvyUwV41ef-7" value="5. 执行路径&#xa;▲ 12分钟&#xa;✔ 敏捷路线图&#xa;※ OKR+熔断机制" style="whiteSpace=wrap;strokeWidth=2;" vertex="1" parent="1">
          <mxGeometry x="1735" y="596" width="260" height="78" as="geometry" />
        </mxCell>
        <mxCell id="PMx_NyxeMetvyUwV41ef-8" value="6. 财务推演&#xa;▲ 8分钟&#xa;✔ 财务模型v1&#xa;※ LTV/CAC平衡" style="whiteSpace=wrap;strokeWidth=2;" vertex="1" parent="1">
          <mxGeometry x="1860" y="746" width="260" height="78" as="geometry" />
        </mxCell>
        <mxCell id="PMx_NyxeMetvyUwV41ef-9" value="7. MVP验证&#xa;▲ 5分钟&#xa;✔ 测试计划&#xa;※ 5种迭代预案" style="whiteSpace=wrap;strokeWidth=2;" vertex="1" parent="1">
          <mxGeometry x="2123" y="897" width="260" height="78" as="geometry" />
        </mxCell>
        <mxCell id="PMx_NyxeMetvyUwV41ef-10" value="4. 资源网络&#xa;▲ 8分钟&#xa;✔ 战略资源池&#xa;※ Airtable矩阵" style="whiteSpace=wrap;strokeWidth=2;" vertex="1" parent="1">
          <mxGeometry x="365" y="270" width="260" height="78" as="geometry" />
        </mxCell>
        <UserObject label="8. 法律架构&#xa;▲ 15分钟&#xa;✔ 风险清单&#xa;※ Ironclad审查" link="https://ironcladapp.com/" tooltip="访问Ironclad平台" id="PMx_NyxeMetvyUwV41ef-11">
          <mxCell style="whiteSpace=wrap;strokeWidth=2;" vertex="1" parent="1">
            <mxGeometry x="985" y="270" width="260" height="78" as="geometry" />
          </mxCell>
        </UserObject>
        <mxCell id="PMx_NyxeMetvyUwV41ef-12" value="9. 团队构建&#xa;▲ 10分钟&#xa;✔ 适配度报告&#xa;※ 动态股权计算" style="whiteSpace=wrap;strokeWidth=2;" vertex="1" parent="1">
          <mxGeometry x="55" y="270" width="260" height="78" as="geometry" />
        </mxCell>
        <mxCell id="PMx_NyxeMetvyUwV41ef-13" value="10. 压力测试&#xa;▲ 25分钟&#xa;✔ 风险评级&#xa;※ 战争沙盘" style="whiteSpace=wrap;strokeWidth=2;" vertex="1" parent="1">
          <mxGeometry x="675" y="270" width="260" height="78" as="geometry" />
        </mxCell>
        <mxCell id="PMx_NyxeMetvyUwV41ef-14" value="GPT-4辅助&#xa;► 自动生成竞品分析&#xa;► 智能协议审查" style="whiteSpace=wrap;strokeWidth=2;" vertex="1" parent="1">
          <mxGeometry x="1021" y="45" width="209" height="102" as="geometry" />
        </mxCell>
        <mxCell id="PMx_NyxeMetvyUwV41ef-15" value="数据分析栈&#xa;► Snowflake实时看板&#xa;► Amplitude旅程追踪" style="whiteSpace=wrap;strokeWidth=2;" vertex="1" parent="1">
          <mxGeometry x="1279" y="45" width="218" height="102" as="geometry" />
        </mxCell>
        <mxCell id="PMx_NyxeMetvyUwV41ef-16" value="定义关键指标" style="curved=1;startArrow=none;endArrow=block;exitX=0;exitY=0.79;entryX=0.39;entryY=-0.01;rounded=0;" edge="1" parent="1" source="PMx_NyxeMetvyUwV41ef-4" target="PMx_NyxeMetvyUwV41ef-5">
          <mxGeometry relative="1" as="geometry">
            <Array as="points">
              <mxPoint x="1670" y="172" />
              <mxPoint x="1670" y="245" />
            </Array>
          </mxGeometry>
        </mxCell>
        <mxCell id="PMx_NyxeMetvyUwV41ef-17" value="选择主赛道" style="curved=1;startArrow=none;endArrow=block;exitX=0.5;exitY=0.99;entryX=0.4;entryY=0;rounded=0;" edge="1" parent="1" source="PMx_NyxeMetvyUwV41ef-5" target="PMx_NyxeMetvyUwV41ef-6">
          <mxGeometry relative="1" as="geometry">
            <Array as="points">
              <mxPoint x="1718" y="409" />
            </Array>
          </mxGeometry>
        </mxCell>
        <mxCell id="PMx_NyxeMetvyUwV41ef-18" value="验证PMF" style="curved=1;startArrow=none;endArrow=block;exitX=0.5;exitY=1;entryX=0.3;entryY=0;rounded=0;" edge="1" parent="1" source="PMx_NyxeMetvyUwV41ef-6" target="PMx_NyxeMetvyUwV41ef-7">
          <mxGeometry relative="1" as="geometry">
            <Array as="points">
              <mxPoint x="1766" y="559" />
            </Array>
          </mxGeometry>
        </mxCell>
        <mxCell id="PMx_NyxeMetvyUwV41ef-19" value="关联财务模型" style="curved=1;startArrow=none;endArrow=block;exitX=0.5;exitY=1;entryX=0.25;entryY=0;rounded=0;" edge="1" parent="1" source="PMx_NyxeMetvyUwV41ef-7" target="PMx_NyxeMetvyUwV41ef-8">
          <mxGeometry relative="1" as="geometry">
            <Array as="points">
              <mxPoint x="1865" y="710" />
            </Array>
          </mxGeometry>
        </mxCell>
        <mxCell id="PMx_NyxeMetvyUwV41ef-20" value="资金消耗率测算" style="curved=1;startArrow=none;endArrow=block;exitX=0.5;exitY=1;entryX=0;entryY=0.02;rounded=0;" edge="1" parent="1" source="PMx_NyxeMetvyUwV41ef-8" target="PMx_NyxeMetvyUwV41ef-9">
          <mxGeometry relative="1" as="geometry">
            <Array as="points">
              <mxPoint x="1990" y="861" />
            </Array>
          </mxGeometry>
        </mxCell>
        <mxCell id="PMx_NyxeMetvyUwV41ef-21" value="数据反馈" style="curved=1;dashed=1;dashPattern=2 3;startArrow=none;endArrow=block;exitX=0.7;exitY=0;entryX=1;entryY=1;rounded=0;" edge="1" parent="1" source="PMx_NyxeMetvyUwV41ef-9" target="PMx_NyxeMetvyUwV41ef-4">
          <mxGeometry relative="1" as="geometry">
            <Array as="points">
              <mxPoint x="2353" y="861" />
              <mxPoint x="2353" y="172" />
            </Array>
          </mxGeometry>
        </mxCell>
        <mxCell id="PMx_NyxeMetvyUwV41ef-22" value="资源注入" style="curved=1;dashed=1;dashPattern=2 3;startArrow=none;endArrow=block;exitX=0.5;exitY=0.99;entryX=0.7;entryY=0;rounded=0;" edge="1" parent="1" source="PMx_NyxeMetvyUwV41ef-10" target="PMx_NyxeMetvyUwV41ef-7">
          <mxGeometry relative="1" as="geometry">
            <Array as="points">
              <mxPoint x="495" y="373" />
              <mxPoint x="1965" y="409" />
              <mxPoint x="1965" y="559" />
            </Array>
          </mxGeometry>
        </mxCell>
        <mxCell id="PMx_NyxeMetvyUwV41ef-23" value="法律合规" style="curved=1;dashed=1;dashPattern=2 3;startArrow=none;endArrow=block;exitX=0.5;exitY=0.99;entryX=0.42;entryY=0;rounded=0;" edge="1" parent="1" source="PMx_NyxeMetvyUwV41ef-11" target="PMx_NyxeMetvyUwV41ef-9">
          <mxGeometry relative="1" as="geometry">
            <Array as="points">
              <mxPoint x="1115" y="373" />
              <mxPoint x="2211" y="409" />
              <mxPoint x="2211" y="861" />
            </Array>
          </mxGeometry>
        </mxCell>
        <mxCell id="PMx_NyxeMetvyUwV41ef-24" value="团队适配" style="curved=1;dashed=1;dashPattern=2 3;startArrow=none;endArrow=block;exitX=0.5;exitY=0.99;entryX=0.64;entryY=0;rounded=0;" edge="1" parent="1" source="PMx_NyxeMetvyUwV41ef-12" target="PMx_NyxeMetvyUwV41ef-6">
          <mxGeometry relative="1" as="geometry">
            <Array as="points">
              <mxPoint x="185" y="373" />
              <mxPoint x="1838" y="409" />
            </Array>
          </mxGeometry>
        </mxCell>
        <mxCell id="PMx_NyxeMetvyUwV41ef-25" value="抗压验证" style="curved=1;dashed=1;dashPattern=2 3;startArrow=none;endArrow=block;exitX=0.5;exitY=0.99;entryX=0.67;entryY=0;rounded=0;" edge="1" parent="1" source="PMx_NyxeMetvyUwV41ef-13" target="PMx_NyxeMetvyUwV41ef-8">
          <mxGeometry relative="1" as="geometry">
            <Array as="points">
              <mxPoint x="805" y="373" />
              <mxPoint x="2074" y="409" />
              <mxPoint x="2074" y="710" />
            </Array>
          </mxGeometry>
        </mxCell>
        <mxCell id="PMx_NyxeMetvyUwV41ef-26" value="AI增强" style="curved=1;startArrow=none;endArrow=block;exitX=0.89;exitY=1;entryX=0.81;entryY=-0.01;rounded=0;" edge="1" parent="1" source="PMx_NyxeMetvyUwV41ef-14" target="PMx_NyxeMetvyUwV41ef-5">
          <mxGeometry relative="1" as="geometry">
            <Array as="points">
              <mxPoint x="1247" y="172" />
              <mxPoint x="1849" y="208" />
              <mxPoint x="1849" y="245" />
            </Array>
          </mxGeometry>
        </mxCell>
        <mxCell id="PMx_NyxeMetvyUwV41ef-27" value="AI增强" style="curved=1;startArrow=none;endArrow=block;exitX=0.47;exitY=1;entryX=0.5;entryY=-0.01;rounded=0;" edge="1" parent="1" source="PMx_NyxeMetvyUwV41ef-14" target="PMx_NyxeMetvyUwV41ef-11">
          <mxGeometry relative="1" as="geometry">
            <Array as="points">
              <mxPoint x="1115" y="172" />
            </Array>
          </mxGeometry>
        </mxCell>
        <mxCell id="PMx_NyxeMetvyUwV41ef-28" value="数据驱动" style="curved=1;startArrow=none;endArrow=block;exitX=0.69;exitY=1;entryX=0.52;entryY=0;rounded=0;" edge="1" parent="1" source="PMx_NyxeMetvyUwV41ef-15" target="PMx_NyxeMetvyUwV41ef-9">
          <mxGeometry relative="1" as="geometry">
            <Array as="points">
              <mxPoint x="1451" y="172" />
              <mxPoint x="2265" y="208" />
              <mxPoint x="2265" y="861" />
            </Array>
          </mxGeometry>
        </mxCell>
        <mxCell id="PMx_NyxeMetvyUwV41ef-29" value="数据驱动" style="curved=1;startArrow=none;endArrow=block;exitX=0.13;exitY=1;entryX=0.78;entryY=0;rounded=0;" edge="1" parent="1" source="PMx_NyxeMetvyUwV41ef-15" target="PMx_NyxeMetvyUwV41ef-8">
          <mxGeometry relative="1" as="geometry">
            <Array as="points">
              <mxPoint x="1267" y="172" />
              <mxPoint x="2128" y="208" />
              <mxPoint x="2128" y="710" />
            </Array>
          </mxGeometry>
        </mxCell>
      </root>
    </mxGraphModel>
  </diagram>
</mxfile>
